<?xml version="1.0" encoding="UTF-8" standalone="no"?>
<!DOCTYPE svg PUBLIC "-//W3C//DTD SVG 1.1//EN" "http://www.w3.org/Graphics/SVG/1.1/DTD/svg11.dtd">
<!-- Created with Linearity Curve (http://linearity.io/curve) -->
<svg height="100%" stroke-miterlimit="10" style="fill-rule:nonzero;clip-rule:evenodd;stroke-linecap:round;stroke-linejoin:round;" version="1.1" viewBox="0 0 1536 1024" width="100%" xml:space="preserve" xmlns="http://www.w3.org/2000/svg" xmlns:vectornator="http://vectornator.io" xmlns:xlink="http://www.w3.org/1999/xlink">
<defs>
<radialGradient cx="0" cy="0" gradientTransform="matrix(211.032 -5.11922e-14 1.27508e-14 211.032 776.26 463.29)" gradientUnits="userSpaceOnUse" id="RadialGradient" r="1">
<stop offset="0" stop-color="#000000"/>
<stop offset="0.00416667" stop-color="#4d7cff"/>
<stop offset="1" stop-color="#885cf6"/>
<stop offset="1" stop-color="#8b5cf6"/>
</radialGradient>
<filter color-interpolation-filters="sRGB" filterUnits="userSpaceOnUse" height="862.985" id="Filter" width="562.091" x="495.214" y="31.7974">
<feGaussianBlur in="SourceGraphic" result="Blur" stdDeviation="28.0055"/>
</filter>
<path d="M567.349 603.264L565.204 822.275C640.805 815.215 979.265 770.65 979.265 770.65L978.869 785.011C982.816 784.643 983.116 784.64 987.217 784.258C991.727 478.517 983.323 475.627 987.833 169.887C888.775 154.919 567.273 101.811 567.273 101.811C567.273 101.811 567.588 475.873 567.349 603.264ZM582.022 114.287C779.398 141.218 781.817 148.652 979.194 175.583C975.08 473.171 983.378 473.062 979.265 770.65L580.609 820.356L579.792 618.255C580.143 382.536 578.441 357.193 582.022 114.287Z" id="Fill"/>
<linearGradient gradientTransform="matrix(454.114 10.5276 -11.6136 379.082 534.791 452.093)" gradientUnits="userSpaceOnUse" id="LinearGradient" x1="0" x2="1" y1="0" y2="0">
<stop offset="0" stop-color="#4dd2ff" stop-opacity="0.418241"/>
<stop offset="0.00416667" stop-color="#4d7cff"/>
<stop offset="1" stop-color="#885cf6"/>
<stop offset="1" stop-color="#8b5cf6"/>
</linearGradient>
<path d="M949.664 780.662C931.705 780.104 913.754 782.136 884.485 786.391L612.251 825.95L568.703 830.271C568.703 830.271 503.385 842.729 503.385 842.729C503.385 842.729 644.137 884.106 823.381 885.985C1002.63 887.865 1118.92 828.777 1116.92 828.122C1149.77 825.625 1174.63 823.524 1174.63 823.524L1014.94 790.438C985.61 784.362 967.623 781.22 949.664 780.662Z" id="Fill_2"/>
<radialGradient cx="0" cy="0" gradientTransform="matrix(717.258 -100.181 60.0594 868.896 413.408 892.813)" gradientUnits="userSpaceOnUse" id="RadialGradient_2" r="1">
<stop offset="0" stop-color="#fff9f9"/>
<stop offset="0.00416667" stop-color="#4d7cff"/>
<stop offset="1" stop-color="#885cf6"/>
<stop offset="1" stop-color="#8b5cf6"/>
</radialGradient>
<filter color-interpolation-filters="sRGB" filterUnits="userSpaceOnUse" height="215.523" id="Filter_2" width="781.31" x="448.353" y="725.539">
<feGaussianBlur in="SourceGraphic" result="Blur" stdDeviation="22.0131"/>
</filter>
<filter color-interpolation-filters="sRGB" filterUnits="userSpaceOnUse" height="739.421" id="Filter_3" width="113.608" x="925.178" y="120.182">
<feGaussianBlur in="SourceGraphic" result="Blur" stdDeviation="14.0369"/>
</filter>
<filter color-interpolation-filters="sRGB" filterUnits="userSpaceOnUse" height="252.332" id="Filter_4" width="585.768" x="495.254" y="677.904">
<feGaussianBlur in="SourceGraphic" result="Blur" stdDeviation="36.9877"/>
</filter>
<path d="M988.806 782.031L983.473 735.15L979.072 769.992C979.072 769.992 907.404 780.699 857.409 786.388C763.037 797.125 476.356 833.535 476.356 833.535L979.289 784.713L1083.02 838.933L988.806 782.031Z" id="Fill_3"/>
<filter color-interpolation-filters="sRGB" filterUnits="userSpaceOnUse" height="111.98" id="Filter_5" width="614.864" x="472.258" y="731.052">
<feGaussianBlur in="SourceGraphic" result="Blur" stdDeviation="1.63934"/>
</filter>
</defs>
<g id="Layer-1" vectornator:layerName="Layer 1">
<g opacity="1" vectornator:layerName="Group 1">
<g opacity="1" vectornator:blendMode="overlay" vectornator:layerName="Group 2">
<path d="M1267.46 361.711L1267.39 452.334L1267.33 542.957L1297.73 543.382C1297.73 543.382 1298.53 520.972 1298.26 493.623C1297.99 466.274 1297.73 435.665 1297.73 422.628C1297.73 421.612 1312.18 447.333 1326.64 473.307C1341.1 499.281 1355.56 525.509 1355.56 525.509L1367.88 525.272C1367.88 525.272 1378.92 501.593 1392.48 476.475C1406.04 451.356 1419.76 426.237 1420.39 426.237C1422.29 426.237 1422.69 455.944 1422.62 485.65C1422.55 515.356 1422.01 545.062 1422.01 545.062C1422.01 545.062 1451.79 544.598 1451.87 544.461C1452.71 543.042 1452.71 497.241 1452.5 451.796C1452.29 406.351 1451.87 361.26 1451.87 361.26L1437.07 361.862L1422.28 362.463C1422.28 362.463 1408.7 386.855 1394.42 412.738C1380.13 438.621 1365.13 465.996 1362.29 471.962C1362.26 472.029 1346.99 444.203 1331.73 416.361C1316.47 388.518 1301.22 360.658 1301.22 360.658L1284.34 361.185L1267.46 361.711Z" fill="#fff9f9" fill-opacity="0.995324" fill-rule="nonzero" opacity="1" stroke="#050505" stroke-linecap="round" stroke-linejoin="round" stroke-width="0" vectornator:layerName="Curve 9"/>
<path d="M1053.32 356.196C1001.7 356.196 959.844 399.46 959.844 452.86C959.844 506.26 1001.7 549.524 1053.32 549.524C1081.81 549.524 1107.31 536.325 1124.45 515.529C1138.37 498.654 1146.79 476.781 1146.79 452.86C1146.79 399.46 1104.93 356.196 1053.32 356.196ZM1054.35 389.137C1088.4 389.137 1116.05 417.156 1116.05 451.805C1116.05 476.687 1101.79 498.199 1081.15 508.337C1073.04 512.316 1063.95 514.522 1054.35 514.522C1020.3 514.522 992.689 486.455 992.689 451.805C992.689 417.156 1020.3 389.137 1054.35 389.137Z" fill="#fff9f9" fill-opacity="0.995324" fill-rule="nonzero" opacity="1" stroke="none" vectornator:layerName="Curve 13"/>
<path d="M704.419 543.602C704.419 543.602 704.625 363.953 704.63 362.118C706.727 362.123 732.418 362.208 734.515 362.213C734.504 363.912 734.059 434.777 734.044 437.253C733.626 505.099 733.588 513.158 733.787 513.491C733.915 513.706 830.905 512.868 830.905 512.868C830.922 514.297 831.415 539.709 831.423 542.274C831.423 542.274 786.221 542.969 754.47 543.301C722.719 543.633 704.419 543.602 704.419 543.602Z" fill="#fff9f9" fill-opacity="0.995324" fill-rule="nonzero" opacity="1" stroke="none" vectornator:layerName="Curve 4"/>
<path d="M491.484 360.847C491.435 360.846 491.404 360.933 491.356 360.943L459.54 361.71C459.283 361.716 459.052 361.882 458.94 362.142L380.56 542.811C380.338 543.322 380.652 543.917 381.16 543.914L416.105 543.723C416.368 543.721 416.592 543.556 416.705 543.291L476.434 404.192L535.434 544.442C535.549 544.716 535.806 544.88 536.077 544.873L573.467 543.962C573.964 543.95 574.281 543.362 574.067 542.859C574.029 542.771 565.098 521.969 561.89 514.522C552.724 493.244 543.509 471.953 534.791 452.093C534.194 450.734 533.578 449.355 532.99 448.017C521.862 422.712 512.538 401.868 505.548 386.883C501.585 378.387 498.393 371.904 496.115 367.56C494.906 365.255 493.954 363.552 493.242 362.477C492.856 361.895 492.528 361.483 492.256 361.231C492.007 361 491.743 360.853 491.484 360.847Z" fill="#fff9f9" fill-opacity="0.995324" fill-rule="nonzero" opacity="1" stroke="none" vectornator:layerName="Curve 1"/>
<path d="M176.853 356.196C125.238 356.196 83.3799 399.46 83.3799 452.86C83.3799 506.26 125.238 549.524 176.853 549.524C205.348 549.524 230.841 536.325 247.988 515.529C251.16 511.681 253.953 507.491 256.52 503.158L227.749 488.486C221.774 496.865 213.924 503.799 204.681 508.337C196.575 512.316 187.482 514.522 177.883 514.522C143.832 514.522 116.224 486.455 116.224 451.805C116.224 417.156 143.832 389.137 177.883 389.137C197.128 389.137 214.114 398.256 225.434 412.296L252.833 396.617C235.872 372.147 208.182 356.196 176.853 356.196Z" fill="#fff9f9" fill-opacity="0.995324" fill-rule="nonzero" opacity="1" stroke="none" vectornator:layerName="Curve 14"/>
</g>
<path d="M567.273 101.811C567.273 101.811 567.774 360.371 567.345 604.233L565.228 824.769C640.595 817.667 690.963 812.274 690.963 812.274L824.171 801.937L977.613 787.285L977.479 745.007C977.687 743.421 977.613 787.285 977.613 787.285L977.613 787.285C981.548 786.916 981.847 786.913 985.935 786.528C990.402 478.658 982.023 475.748 986.49 167.879C778.136 136.058 567.273 101.811 567.273 101.811ZM581.925 111.851C778.695 138.989 781.108 146.475 977.877 173.613C973.806 473.273 981.684 487.626 977.613 787.285C977.613 787.285 773.214 803.971 580.585 822.838L579.751 619.329C580.078 381.969 578.379 356.449 581.925 111.851Z" fill="url(#RadialGradient)" fill-rule="nonzero" filter="url(#Filter)" opacity="1" stroke="none" vectornator:blendMode="overlay" vectornator:blur="56.0111" vectornator:layerName="Curve 1"/>
<g opacity="1" vectornator:blendMode="overlay" vectornator:layerName="Curve 1">
<use fill="url(#LinearGradient)" fill-rule="nonzero" stroke="none" xlink:href="#Fill"/>
<mask height="720.463" id="StrokeMask" maskUnits="userSpaceOnUse" width="423.39" x="565.204" y="101.811">
<rect fill="#000000" height="720.463" stroke="none" width="423.39" x="565.204" y="101.811"/>
<use fill="#ffffff" fill-rule="evenodd" stroke="none" xlink:href="#Fill"/>
</mask>
<use fill="none" mask="url(#StrokeMask)" stroke="#885df7" stroke-linecap="round" stroke-linejoin="round" stroke-width="0.0907014" xlink:href="#Fill"/>
</g>
<g opacity="1" vectornator:blendMode="overlay" vectornator:layerName="Group 5">
<path d="M244.345 633.406C244.345 636.692 243.736 639.527 242.517 641.912C241.298 644.297 239.69 646.258 237.694 647.795C235.698 649.332 233.445 650.463 230.936 651.187C228.428 651.912 225.884 652.274 223.304 652.274L209.312 652.274L209.312 614.75L222.88 614.75C225.53 614.75 228.145 615.059 230.724 615.677C233.304 616.296 235.6 617.32 237.614 618.751C239.628 620.182 241.254 622.099 242.49 624.502C243.727 626.904 244.345 629.872 244.345 633.406ZM234.911 633.406C234.911 631.286 234.567 629.528 233.878 628.132C233.189 626.737 232.27 625.624 231.122 624.793C229.974 623.963 228.666 623.371 227.2 623.018C225.734 622.664 224.223 622.488 222.668 622.488L218.163 622.488L218.163 644.43L222.456 644.43C224.082 644.43 225.645 644.244 227.147 643.873C228.649 643.502 229.974 642.893 231.122 642.045C232.27 641.197 233.189 640.066 233.878 638.653C234.567 637.239 234.911 635.49 234.911 633.406Z" fill="#fff9f9" fill-opacity="0.995324" fill-rule="nonzero" opacity="1" stroke="none" vectornator:layerName="Curve"/>
<path d="M300.334 652.274L300.334 614.75L309.45 614.75L309.45 652.274L300.334 652.274Z" fill="#fff9f9" fill-opacity="0.995324" fill-rule="nonzero" opacity="1" stroke="none" vectornator:layerName="Curve"/>
<path d="M400.525 649.995C398.688 650.949 396.542 651.726 394.086 652.327C391.63 652.927 388.954 653.228 386.056 653.228C383.053 653.228 380.288 652.751 377.762 651.797C375.236 650.843 373.063 649.5 371.243 647.769C369.423 646.037 368.001 643.962 366.976 641.541C365.952 639.121 365.439 636.427 365.439 633.459C365.439 630.455 365.961 627.735 367.003 625.297C368.045 622.859 369.485 620.783 371.322 619.069C373.16 617.356 375.315 616.039 377.788 615.121C380.262 614.202 382.929 613.743 385.791 613.743C388.759 613.743 391.515 614.193 394.059 615.094C396.603 615.995 398.67 617.205 400.26 618.725L394.536 625.244C393.653 624.219 392.487 623.38 391.038 622.726C389.59 622.073 387.947 621.746 386.109 621.746C384.519 621.746 383.053 622.037 381.71 622.62C380.368 623.203 379.202 624.016 378.212 625.058C377.223 626.101 376.455 627.337 375.907 628.768C375.359 630.199 375.085 631.763 375.085 633.459C375.085 635.19 375.333 636.78 375.827 638.229C376.322 639.677 377.055 640.923 378.027 641.965C378.999 643.008 380.2 643.82 381.631 644.403C383.062 644.986 384.696 645.278 386.533 645.278C387.593 645.278 388.6 645.198 389.554 645.039C390.508 644.88 391.392 644.624 392.204 644.271L392.204 637.434L385.049 637.434L385.049 630.12L400.525 630.12L400.525 649.995Z" fill="#fff9f9" fill-opacity="0.995324" fill-rule="nonzero" opacity="1" stroke="none" vectornator:layerName="Curve"/>
<path d="M457.945 652.274L457.945 614.75L467.061 614.75L467.061 652.274L457.945 652.274Z" fill="#fff9f9" fill-opacity="0.995324" fill-rule="nonzero" opacity="1" stroke="none" vectornator:layerName="Curve"/>
<path d="M540.858 622.488L540.858 652.274L531.795 652.274L531.795 622.488L521.195 622.488L521.195 614.75L551.458 614.75L551.458 622.488L540.858 622.488Z" fill="#fff9f9" fill-opacity="0.995324" fill-rule="nonzero" opacity="1" stroke="none" vectornator:layerName="Curve"/>
<path d="M627.852 652.274L624.937 644.907L610.415 644.907L607.659 652.274L597.801 652.274L613.542 614.75L622.34 614.75L637.922 652.274L627.852 652.274ZM617.782 624.767L613.012 637.646L622.446 637.646L617.782 624.767Z" fill="#fff9f9" fill-opacity="0.995324" fill-rule="nonzero" opacity="1" stroke="none" vectornator:layerName="Curve"/>
<path d="M691.049 652.274L691.049 614.75L700.165 614.75L700.165 644.377L714.687 644.377L714.687 652.274L691.049 652.274Z" fill="#fff9f9" fill-opacity="0.995324" fill-rule="nonzero" opacity="1" stroke="none" vectornator:layerName="Curve"/>
<path d="M850.727 624.502C849.95 623.512 848.934 622.726 847.68 622.143C846.426 621.56 845.215 621.269 844.049 621.269C843.449 621.269 842.839 621.322 842.221 621.428C841.603 621.534 841.046 621.737 840.551 622.037C840.057 622.338 839.642 622.726 839.306 623.203C838.97 623.68 838.802 624.29 838.802 625.032C838.802 625.668 838.935 626.198 839.2 626.622C839.465 627.046 839.854 627.417 840.366 627.735C840.878 628.053 841.488 628.344 842.194 628.609C842.901 628.874 843.696 629.148 844.579 629.431C845.851 629.855 847.176 630.323 848.554 630.835C849.932 631.348 851.187 632.028 852.317 632.876C853.448 633.724 854.384 634.775 855.126 636.029C855.868 637.284 856.239 638.847 856.239 640.72C856.239 642.875 855.842 644.739 855.047 646.311C854.252 647.884 853.183 649.182 851.84 650.207C850.498 651.231 848.961 651.991 847.229 652.486C845.498 652.98 843.714 653.228 841.876 653.228C839.191 653.228 836.594 652.76 834.085 651.823C831.577 650.887 829.492 649.553 827.831 647.822L833.767 641.78C834.686 642.91 835.896 643.856 837.398 644.615C838.9 645.375 840.392 645.755 841.876 645.755C842.548 645.755 843.201 645.684 843.837 645.543C844.473 645.401 845.03 645.172 845.507 644.854C845.984 644.536 846.364 644.112 846.646 643.582C846.929 643.052 847.07 642.416 847.07 641.674C847.07 640.967 846.894 640.366 846.54 639.872C846.187 639.377 845.684 638.927 845.03 638.52C844.376 638.114 843.564 637.743 842.592 637.407C841.62 637.072 840.516 636.709 839.279 636.321C838.078 635.932 836.903 635.473 835.755 634.943C834.607 634.413 833.582 633.733 832.681 632.902C831.78 632.072 831.056 631.065 830.508 629.881C829.96 628.698 829.686 627.258 829.686 625.562C829.686 623.477 830.11 621.693 830.958 620.209C831.806 618.725 832.919 617.506 834.297 616.552C835.675 615.598 837.23 614.9 838.961 614.458C840.693 614.017 842.442 613.796 844.208 613.796C846.328 613.796 848.493 614.184 850.701 614.962C852.909 615.739 854.844 616.887 856.504 618.407L850.727 624.502Z" fill="#fff9f9" fill-opacity="0.995324" fill-rule="nonzero" opacity="1" stroke="none" vectornator:layerName="Curve"/>
<path d="M927.598 622.488L927.598 652.274L918.535 652.274L918.535 622.488L907.935 622.488L907.935 614.75L938.198 614.75L938.198 622.488L927.598 622.488Z" fill="#fff9f9" fill-opacity="0.995324" fill-rule="nonzero" opacity="1" stroke="none" vectornator:layerName="Curve"/>
<path d="M1024.13 638.123C1024.13 640.384 1023.75 642.442 1022.99 644.297C1022.23 646.152 1021.15 647.742 1019.73 649.067C1018.32 650.392 1016.62 651.426 1014.62 652.168C1012.62 652.91 1010.41 653.281 1007.97 653.281C1005.49 653.281 1003.27 652.91 1001.29 652.168C999.311 651.426 997.632 650.392 996.254 649.067C994.876 647.742 993.816 646.152 993.074 644.297C992.332 642.442 991.961 640.384 991.961 638.123L991.961 614.75L1000.97 614.75L1000.97 637.381C1000.97 638.405 1001.1 639.377 1001.37 640.296C1001.63 641.214 1002.04 642.036 1002.59 642.76C1003.14 643.485 1003.86 644.059 1004.76 644.483C1005.66 644.907 1006.75 645.119 1008.02 645.119C1009.29 645.119 1010.38 644.907 1011.28 644.483C1012.18 644.059 1012.91 643.485 1013.48 642.76C1014.04 642.036 1014.45 641.214 1014.7 640.296C1014.95 639.377 1015.07 638.405 1015.07 637.381L1015.07 614.75L1024.13 614.75L1024.13 638.123Z" fill="#fff9f9" fill-opacity="0.995324" fill-rule="nonzero" opacity="1" stroke="none" vectornator:layerName="Curve"/>
<path d="M1116.48 633.406C1116.48 636.692 1115.87 639.527 1114.65 641.912C1113.43 644.297 1111.82 646.258 1109.83 647.795C1107.83 649.332 1105.58 650.463 1103.07 651.187C1100.56 651.912 1098.02 652.274 1095.44 652.274L1081.45 652.274L1081.45 614.75L1095.01 614.75C1097.66 614.75 1100.28 615.059 1102.86 615.677C1105.44 616.296 1107.73 617.32 1109.75 618.751C1111.76 620.182 1113.39 622.099 1114.62 624.502C1115.86 626.904 1116.48 629.872 1116.48 633.406ZM1107.05 633.406C1107.05 631.286 1106.7 629.528 1106.01 628.132C1105.32 626.737 1104.4 625.624 1103.26 624.793C1102.11 623.963 1100.8 623.371 1099.33 623.018C1097.87 622.664 1096.36 622.488 1094.8 622.488L1090.3 622.488L1090.3 644.43L1094.59 644.43C1096.22 644.43 1097.78 644.244 1099.28 643.873C1100.78 643.502 1102.11 642.893 1103.26 642.045C1104.4 641.197 1105.32 640.066 1106.01 638.653C1106.7 637.239 1107.05 635.49 1107.05 633.406Z" fill="#fff9f9" fill-opacity="0.995324" fill-rule="nonzero" opacity="1" stroke="none" vectornator:layerName="Curve"/>
<path d="M1172.47 652.274L1172.47 614.75L1181.58 614.75L1181.58 652.274L1172.47 652.274Z" fill="#fff9f9" fill-opacity="0.995324" fill-rule="nonzero" opacity="1" stroke="none" vectornator:layerName="Curve"/>
<path d="M1278.44 633.353C1278.44 636.321 1277.92 639.033 1276.9 641.488C1275.87 643.944 1274.45 646.046 1272.63 647.795C1270.81 649.544 1268.65 650.896 1266.14 651.85C1263.63 652.804 1260.91 653.281 1257.98 653.281C1255.05 653.281 1252.33 652.804 1249.84 651.85C1247.35 650.896 1245.2 649.544 1243.38 647.795C1241.56 646.046 1240.14 643.944 1239.11 641.488C1238.09 639.033 1237.57 636.321 1237.57 633.353C1237.57 630.349 1238.09 627.638 1239.11 625.217C1240.14 622.797 1241.56 620.739 1243.38 619.043C1245.2 617.347 1247.35 616.039 1249.84 615.121C1252.33 614.202 1255.05 613.743 1257.98 613.743C1260.91 613.743 1263.63 614.202 1266.14 615.121C1268.65 616.039 1270.81 617.347 1272.63 619.043C1274.45 620.739 1275.87 622.797 1276.9 625.217C1277.92 627.638 1278.44 630.349 1278.44 633.353ZM1268.74 633.353C1268.74 631.727 1268.47 630.208 1267.94 628.795C1267.41 627.381 1266.68 626.171 1265.74 625.164C1264.81 624.157 1263.68 623.362 1262.35 622.779C1261.03 622.196 1259.57 621.905 1257.98 621.905C1256.39 621.905 1254.94 622.196 1253.63 622.779C1252.33 623.362 1251.19 624.157 1250.24 625.164C1249.29 626.171 1248.55 627.381 1248.04 628.795C1247.53 630.208 1247.27 631.727 1247.27 633.353C1247.27 635.049 1247.54 636.612 1248.07 638.043C1248.6 639.474 1249.33 640.702 1250.27 641.727C1251.2 642.751 1252.33 643.555 1253.63 644.138C1254.94 644.721 1256.39 645.013 1257.98 645.013C1259.57 645.013 1261.02 644.721 1262.32 644.138C1263.63 643.555 1264.76 642.751 1265.72 641.727C1266.67 640.702 1267.41 639.474 1267.94 638.043C1268.47 636.612 1268.74 635.049 1268.74 633.353Z" fill="#fff9f9" fill-opacity="0.995324" fill-rule="nonzero" opacity="1" stroke="none" vectornator:layerName="Curve"/>
</g>
</g>
<g filter="url(#Filter_2)" opacity="1" vectornator:blendMode="overlay" vectornator:blur="44.0262" vectornator:layerName="Curve 1">
<use fill="url(#RadialGradient_2)" fill-rule="nonzero" stroke="none" xlink:href="#Fill_2"/>
<mask height="105.458" id="StrokeMask_2" maskUnits="userSpaceOnUse" width="671.244" x="503.385" y="780.571">
<rect fill="#000000" height="105.458" stroke="none" width="671.244" x="503.385" y="780.571"/>
<use fill="#ffffff" fill-rule="evenodd" stroke="none" xlink:href="#Fill_2"/>
</mask>
<use fill="none" mask="url(#StrokeMask_2)" stroke="#ffffff" stroke-linecap="round" stroke-linejoin="round" stroke-width="0" xlink:href="#Fill_2"/>
</g>
<path d="M990.425 168.543C966.012 217.369 971.525 724.103 985.284 811.242" fill="#885df7" fill-rule="nonzero" filter="url(#Filter_3)" opacity="0.329349" stroke="#885df7" stroke-linecap="round" stroke-linejoin="round" stroke-width="26.5385" vectornator:blendMode="overlay" vectornator:blur="28.0738" vectornator:layerName="Curve 2"/>
<path d="M974.897 788.632C978.7 777.224 955.395 787.735 861.919 796.701C768.442 805.668 600.992 824.498 600.992 824.498" fill="#ffffff" fill-rule="nonzero" filter="url(#Filter_4)" opacity="0.505578" stroke="#ffffff" stroke-linecap="round" stroke-linejoin="round" stroke-width="26.5385" vectornator:blendMode="overlay" vectornator:blur="73.9754" vectornator:layerName="Curve 4"/>
<g filter="url(#Filter_5)" opacity="1" vectornator:blendMode="overlay" vectornator:blur="3.27869" vectornator:layerName="Curve 5">
<mask height="103.783" id="StrokeMask_3" maskUnits="userSpaceOnUse" width="606.667" x="476.356" y="735.15">
<rect fill="#000000" height="103.783" stroke="none" width="606.667" x="476.356" y="735.15"/>
<use fill="#ffffff" fill-rule="evenodd" stroke="none" xlink:href="#Fill_3"/>
</mask>
<use fill="none" mask="url(#StrokeMask_3)" stroke="#ffffff" stroke-linecap="round" stroke-linejoin="round" stroke-width="19.2269" xlink:href="#Fill_3"/>
</g>
<path d="M975.43 770.613" fill="none" opacity="0.505578" stroke="#ffffff" stroke-linecap="round" stroke-linejoin="round" stroke-width="9.61343" vectornator:blendMode="overlay" vectornator:layerName="Curve 6"/>
</g>
</svg>
