<?xml version="1.0" encoding="UTF-8" standalone="no"?>
<!DOCTYPE svg PUBLIC "-//W3C//DTD SVG 1.1//EN" "http://www.w3.org/Graphics/SVG/1.1/DTD/svg11.dtd">
<!-- Created with Linearity Curve (http://linearity.io/curve) -->
<svg height="100%" stroke-miterlimit="10" style="fill-rule:nonzero;clip-rule:evenodd;stroke-linecap:round;stroke-linejoin:round;" version="1.1" viewBox="0 0 1536 1024" width="100%" xml:space="preserve" xmlns="http://www.w3.org/2000/svg" xmlns:vectornator="http://vectornator.io" xmlns:xlink="http://www.w3.org/1999/xlink">
<defs>
<filter color-interpolation-filters="sRGB" filterUnits="userSpaceOnUse" height="297.897" id="Filter" width="1037.4" x="242.606" y="744.378">
<feGaussianBlur in="SourceGraphic" result="Blur" stdDeviation="33.6934"/>
</filter>
<path d="M979.578 835.916C956.247 835.59 932.883 838.165 894.772 843.42L540.305 892.27L483.637 897.835C483.637 897.835 398.539 912.88 398.539 912.88C398.539 912.88 580.778 956.892 813.702 956.014C1046.63 955.137 1184.15 916.401 1184.15 916.401L1078.79 875.971C1078.79 875.971 1002.91 836.243 979.578 835.916Z" id="Fill"/>
<radialGradient cx="0" cy="0" gradientTransform="matrix(972.453 -135.38 69.1564 1013.23 280.767 970.487)" gradientUnits="userSpaceOnUse" id="RadialGradient" r="1">
<stop offset="0" stop-color="#fff9f9"/>
<stop offset="0.00416667" stop-color="#4d7cff"/>
<stop offset="1" stop-color="#885cf6"/>
<stop offset="1" stop-color="#8b5cf6"/>
</radialGradient>
<filter color-interpolation-filters="sRGB" filterUnits="userSpaceOnUse" height="230.204" id="Filter_2" width="895.678" x="343.506" y="780.856">
<feGaussianBlur in="SourceGraphic" result="Blur" stdDeviation="22.0131"/>
</filter>
<path d="M959.601 837.498C936.603 837.508 913.538 839.992 875.9 844.944L525.836 890.98L469.899 896.426C469.899 896.426 385.818 910.305 385.818 910.306C385.818 910.306 564.938 945.581 794.583 941.953C1024.23 938.325 1160.29 903.596 1160.29 903.596L1056.92 870.425C1056.92 870.425 982.598 837.487 959.601 837.498Z" id="Fill_2"/>
<radialGradient cx="0" cy="0" gradientTransform="matrix(1183.19 -156.214 68.1119 1063.27 -21.345 1000.36)" gradientUnits="userSpaceOnUse" id="RadialGradient_2" r="1">
<stop offset="0" stop-color="#fff9f9"/>
<stop offset="0.00416667" stop-color="#4d7cff"/>
<stop offset="1" stop-color="#885cf6"/>
<stop offset="1" stop-color="#8b5cf6"/>
</radialGradient>
<filter color-interpolation-filters="sRGB" filterUnits="userSpaceOnUse" height="214.783" id="Filter_3" width="884.538" x="330.785" y="782.465">
<feGaussianBlur in="SourceGraphic" result="Blur" stdDeviation="22.0131"/>
</filter>
<radialGradient cx="0" cy="0" gradientTransform="matrix(216.916 -0.0607566 -0.0607566 210.632 777.334 518.182)" gradientUnits="userSpaceOnUse" id="RadialGradient_3" r="1">
<stop offset="0" stop-color="#000000"/>
<stop offset="0.00416667" stop-color="#4d7cff"/>
<stop offset="1" stop-color="#885cf6"/>
<stop offset="1" stop-color="#8b5cf6"/>
</radialGradient>
<filter color-interpolation-filters="sRGB" filterUnits="userSpaceOnUse" height="800.047" id="Filter_4" width="507.732" x="523.394" y="120.528">
<feGaussianBlur in="SourceGraphic" result="Blur" stdDeviation="12.3975"/>
</filter>
<radialGradient cx="0" cy="0" gradientTransform="matrix(208.532 -4.88327e-14 1.38887e-14 208.532 785.764 514.485)" gradientUnits="userSpaceOnUse" id="RadialGradient_4" r="1">
<stop offset="0" stop-color="#000000"/>
<stop offset="0.00416667" stop-color="#4d7cff"/>
<stop offset="1" stop-color="#885cf6"/>
<stop offset="1" stop-color="#8b5cf6"/>
</radialGradient>
<filter color-interpolation-filters="sRGB" filterUnits="userSpaceOnUse" height="1108.31" id="Filter_5" width="810.982" x="380.273" y="-39.6711">
<feGaussianBlur in="SourceGraphic" result="Blur" stdDeviation="50"/>
</filter>
<radialGradient cx="0" cy="0" gradientTransform="matrix(208.532 -4.88327e-14 1.38887e-14 208.532 785.764 514.485)" gradientUnits="userSpaceOnUse" id="RadialGradient_5" r="1">
<stop offset="0" stop-color="#000000"/>
<stop offset="0.00416667" stop-color="#4d7cff"/>
<stop offset="1" stop-color="#885cf6"/>
<stop offset="1" stop-color="#8b5cf6"/>
</radialGradient>
<filter color-interpolation-filters="sRGB" filterUnits="userSpaceOnUse" height="957.56" id="Filter_6" width="660.23" x="455.649" y="35.705">
<feGaussianBlur in="SourceGraphic" result="Blur" stdDeviation="28.6332"/>
</filter>
<radialGradient cx="0" cy="0" gradientTransform="matrix(214.132 3.65776e-14 -2.63436e-15 214.132 780.074 520.091)" gradientUnits="userSpaceOnUse" id="RadialGradient_6" r="1">
<stop offset="0" stop-color="#000000"/>
<stop offset="0.00416667" stop-color="#4d7cff"/>
<stop offset="1" stop-color="#885cf6"/>
<stop offset="1" stop-color="#8b5cf6"/>
</radialGradient>
<filter color-interpolation-filters="sRGB" filterUnits="userSpaceOnUse" height="769.957" id="Filter_7" width="476.148" x="542" y="135.112">
<feGaussianBlur in="SourceGraphic" result="Blur" stdDeviation="6.57782"/>
</filter>
<path d="M571.295 660.579L570.913 879.638L983.211 827.965C983.211 827.965 991.483 832.62 991.494 831.87C995.725 534.45 987.31 530.125 991.779 227.202C892.721 212.234 571.219 159.126 571.219 159.126L571.295 660.579ZM585.968 171.602C783.344 198.533 785.763 205.967 983.139 232.898C979.026 530.486 981.876 528.011 977.763 825.598L583.083 873.59L583.738 675.57C583.738 675.57 582.387 414.508 585.968 171.602Z" id="Fill_3"/>
<linearGradient gradientTransform="matrix(454.114 10.5276 -11.6136 379.082 538.737 509.408)" gradientUnits="userSpaceOnUse" id="LinearGradient" x1="0" x2="1" y1="0" y2="0">
<stop offset="0" stop-color="#210c52"/>
<stop offset="0" stop-color="#420053"/>
<stop offset="0.00416667" stop-color="#021df3"/>
<stop offset="0.622917" stop-color="#4926a6"/>
</linearGradient>
<path d="M994.514 839.329L989.74 745.746L984.78 827.29C984.78 827.29 913.112 837.997 863.117 843.686C768.745 854.423 482.064 890.833 482.064 890.833L984.997 842.011L1108.32 883.174L994.514 839.329Z" id="Fill_4"/>
<filter color-interpolation-filters="sRGB" filterUnits="userSpaceOnUse" height="157.866" id="Filter_8" width="639.031" x="475.675" y="739.357">
<feGaussianBlur in="SourceGraphic" result="Blur" stdDeviation="2.55569"/>
</filter>
<path d="M994.514 839.329L988.466 749.875L984.78 827.29C984.78 827.29 913.112 837.997 863.117 843.686C768.745 854.423 482.064 890.833 482.064 890.833L984.997 842.011L1104.4 887.091L994.514 839.329Z" id="Fill_5"/>
<filter color-interpolation-filters="sRGB" filterUnits="userSpaceOnUse" height="300.433" id="Filter_9" width="781.811" x="402.327" y="670.137">
<feGaussianBlur in="SourceGraphic" result="Blur" stdDeviation="31.8951"/>
</filter>
<path d="M987.757 828.589L987.814 772.516C987.814 772.516 985.872 522.648 984.126 537.9C982.379 553.152 983.9 827.503 981.427 829.901C978.953 832.298 864.481 842.049 864.481 842.049L482.064 890.833C482.064 890.833 954.033 838.683 976.463 839.989C998.893 841.296 1091.71 877.891 1091.71 877.891L987.757 828.589Z" id="Fill_6"/>
<filter color-interpolation-filters="sRGB" filterUnits="userSpaceOnUse" height="356.865" id="Filter_10" width="612.902" x="480.433" y="535.599">
<feGaussianBlur in="SourceGraphic" result="Blur" stdDeviation="0.652268"/>
</filter>
<filter color-interpolation-filters="sRGB" filterUnits="userSpaceOnUse" height="252.332" id="Filter_11" width="585.768" x="500.962" y="735.202">
<feGaussianBlur in="SourceGraphic" result="Blur" stdDeviation="36.9877"/>
</filter>
<path d="M994.514 839.329L984.78 827.29C984.78 827.29 913.112 837.997 863.117 843.686C768.745 854.423 482.064 890.833 482.064 890.833L984.997 842.011L1108.32 883.174L994.514 839.329Z" id="Fill_7"/>
<filter color-interpolation-filters="sRGB" filterUnits="userSpaceOnUse" height="76.3211" id="Filter_12" width="639.031" x="475.675" y="820.901">
<feGaussianBlur in="SourceGraphic" result="Blur" stdDeviation="2.55569"/>
</filter>
<path d="M984.183 834.89C984.183 834.89 985.746 710.385 985.461 643.245C985.175 576.105 983.039 566.33 983.039 566.33L975.276 557.028C975.037 556.741 974.569 556.911 974.57 557.284L974.885 825.869C974.885 825.869 902.781 833.559 852.785 839.247C758.414 849.985 471.732 886.395 471.732 886.395L974.666 837.572L1094.07 882.653L984.183 834.89Z" id="Fill_8"/>
<filter color-interpolation-filters="sRGB" filterUnits="userSpaceOnUse" height="429.556" id="Filter_13" width="721.678" x="422.061" y="506.509">
<feGaussianBlur in="SourceGraphic" result="Blur" stdDeviation="19.8684"/>
</filter>
<path d="M984.889 826.902C984.889 826.902 985.032 810.098 985.116 776.902C985.2 743.705 985.225 694.117 985.225 694.117C985.225 694.117 985.204 528.485 984.126 537.9C983.214 545.864 980.556 719.61 980.556 719.61L979.518 826.901L864.481 842.049L482.064 890.833C482.064 890.833 957.848 844.533 980.278 845.839C1002.71 847.146 1091.71 877.891 1091.71 877.891L984.889 826.902Z" id="Fill_9"/>
<filter color-interpolation-filters="sRGB" filterUnits="userSpaceOnUse" height="359.979" id="Filter_14" width="616.301" x="478.734" y="534.184">
<feGaussianBlur in="SourceGraphic" result="Blur" stdDeviation="1.33197"/>
</filter>
<filter color-interpolation-filters="sRGB" filterUnits="userSpaceOnUse" height="252.332" id="Filter_15" width="585.768" x="500.962" y="735.202">
<feGaussianBlur in="SourceGraphic" result="Blur" stdDeviation="36.9877"/>
</filter>
<path d="M994.161 828.295C994.161 828.295 960.753 830.203 933.44 833.711L679.402 866.328L638.819 870.263C638.819 870.263 577.787 879.985 577.787 879.985C577.787 879.985 740.145 873.086 906.657 869.465C1073.17 865.843 1133.46 895.24 1133.46 895.24L1065.37 858.828L994.161 828.295Z" id="Fill_10"/>
<filter color-interpolation-filters="sRGB" filterUnits="userSpaceOnUse" height="113.153" id="Filter_16" width="601.878" x="554.683" y="805.191">
<feGaussianBlur in="SourceGraphic" result="Blur" stdDeviation="9.24152"/>
</filter>
<path d="M994.161 828.295C994.161 828.295 960.753 830.203 933.44 833.711L679.402 866.328L638.819 870.263C638.819 870.263 577.787 879.985 577.787 879.985C577.787 879.985 740.145 873.086 906.657 869.465C1073.17 865.843 1133.46 895.24 1133.46 895.24L1065.37 858.828L994.161 828.295Z" id="Fill_11"/>
<filter color-interpolation-filters="sRGB" filterUnits="userSpaceOnUse" height="260.575" id="Filter_17" width="749.3" x="480.972" y="731.48">
<feGaussianBlur in="SourceGraphic" result="Blur" stdDeviation="38.726"/>
</filter>
</defs>
<clipPath id="ArtboardFrame">
<rect height="1024" width="1536" x="0" y="0"/>
</clipPath>
<g clip-path="url(#ArtboardFrame)" id="Layer-1" vectornator:layerName="Layer 1">
<g opacity="1" vectornator:layerName="Group 1">
<g opacity="1" vectornator:blendMode="darken" vectornator:layerName="Group 1">
<g opacity="1" vectornator:layerName="Group 1">
<path d="M969.747 828.63C943.942 828.352 918.093 831.186 875.923 836.941L483.707 890.445L421.01 896.591C421.01 896.591 326.84 912.994 326.84 912.994C326.84 912.994 528.274 959.656 785.907 957.998C1043.54 956.341 1195.77 914.356 1195.77 914.356L1079.36 871.301C1079.36 871.301 995.553 828.908 969.747 828.63Z" fill="#885df7" fill-rule="nonzero" filter="url(#Filter)" opacity="0.191517" stroke="none" vectornator:blendMode="luminosity" vectornator:blur="67.3868" vectornator:layerName="Curve 1"/>
<g filter="url(#Filter_2)" opacity="0.191517" vectornator:blendMode="luminosity" vectornator:blur="44.0262" vectornator:layerName="Curve 7">
<use fill="url(#RadialGradient)" fill-rule="nonzero" stroke="none" xlink:href="#Fill"/>
<mask height="120.138" id="StrokeMask" maskUnits="userSpaceOnUse" width="785.613" x="398.539" y="835.889">
<rect fill="#000000" height="120.138" stroke="none" width="785.613" x="398.539" y="835.889"/>
<use fill="#ffffff" fill-rule="evenodd" stroke="none" xlink:href="#Fill"/>
</mask>
<use fill="none" mask="url(#StrokeMask)" stroke="#ffffff" stroke-linecap="round" stroke-linejoin="round" stroke-width="0" xlink:href="#Fill"/>
</g>
<g filter="url(#Filter_3)" opacity="1" vectornator:blendMode="saturation" vectornator:blur="44.0262" vectornator:layerName="Curve 6">
<use fill="url(#RadialGradient_2)" fill-rule="nonzero" stroke="none" xlink:href="#Fill_2"/>
<mask height="104.717" id="StrokeMask_2" maskUnits="userSpaceOnUse" width="774.472" x="385.818" y="837.498">
<rect fill="#000000" height="104.717" stroke="none" width="774.472" x="385.818" y="837.498"/>
<use fill="#ffffff" fill-rule="evenodd" stroke="none" xlink:href="#Fill_2"/>
</mask>
<use fill="none" mask="url(#StrokeMask_2)" stroke="#ffffff" stroke-linecap="round" stroke-linejoin="round" stroke-width="0" xlink:href="#Fill_2"/>
</g>
<path d="M562.624 157.449C562.624 157.449 563.065 415.518 562.553 658.917L560.314 879.036C637.784 871.926 689.558 866.528 689.558 866.528L826.483 856.173L984.208 841.505L984.083 799.307C984.296 797.724 984.208 841.505 984.208 841.505L984.208 841.505C988.252 841.135 988.56 841.132 992.762 840.746C997.442 533.459 988.831 530.556 993.511 223.27C779.356 191.57 562.624 157.449 562.624 157.449ZM577.682 167.465C779.93 194.495 782.408 201.966 984.656 228.996C980.385 528.089 988.479 542.412 984.208 841.505C984.208 841.505 773.322 864.768 575.317 883.655L575.301 673.981C575.705 437.071 573.966 411.601 577.682 167.465Z" fill="url(#RadialGradient_3)" fill-rule="nonzero" filter="url(#Filter_4)" opacity="0.556966" stroke="#ffffff" stroke-linecap="round" stroke-linejoin="round" stroke-width="11.8529" vectornator:blendMode="luminosity" vectornator:blur="24.7951" vectornator:layerName="Curve 1"/>
<path d="M579.252 157.288C579.252 157.288 579.748 412.785 579.324 653.758L577.232 871.682C651.706 864.665 701.477 859.335 701.477 859.335L833.108 849.121L984.732 834.642L984.6 792.865C984.805 791.298 984.732 834.642 984.732 834.642L984.732 834.642C988.62 834.277 988.916 834.274 992.955 833.894C997.37 529.671 989.09 526.795 993.504 222.573C787.617 191.129 579.252 157.288 579.252 157.288ZM593.731 167.209C788.17 194.026 790.554 201.423 984.993 228.239C980.97 524.349 988.755 538.532 984.732 834.642C984.732 834.642 782.754 851.13 592.407 869.774L591.583 668.676C591.906 434.127 590.227 408.91 593.731 167.209Z" fill="url(#RadialGradient_4)" fill-rule="nonzero" filter="url(#Filter_5)" opacity="1" stroke="#885df7" stroke-linecap="round" stroke-linejoin="round" stroke-width="143.918" vectornator:blendMode="saturation" vectornator:blur="100" vectornator:layerName="Curve 3"/>
<path d="M579.252 157.288C579.252 157.288 579.748 412.785 579.324 653.758L577.232 871.682C651.706 864.665 701.477 859.335 701.477 859.335L833.108 849.121L984.732 834.642L984.6 792.865C984.805 791.298 984.732 834.642 984.732 834.642L984.732 834.642C988.62 834.277 988.916 834.274 992.955 833.894C997.37 529.671 989.09 526.795 993.504 222.573C787.617 191.129 579.252 157.288 579.252 157.288ZM593.731 167.209C788.17 194.026 790.554 201.423 984.993 228.239C980.97 524.349 988.755 538.532 984.732 834.642C984.732 834.642 782.754 851.13 592.407 869.774L591.583 668.676C591.906 434.127 590.227 408.91 593.731 167.209Z" fill="url(#RadialGradient_5)" fill-rule="nonzero" filter="url(#Filter_6)" opacity="1" stroke="#4d7cff" stroke-linecap="round" stroke-linejoin="round" stroke-width="100" vectornator:blendMode="saturation" vectornator:blur="57.2663" vectornator:layerName="Curve 2"/>
<path d="M566.294 159.054C566.294 159.054 565.922 482.319 565.943 661.968C565.964 841.616 566.097 881.127 566.097 881.127C566.097 881.127 623.016 872.244 689.558 866.528C756.1 860.812 826.483 856.173 826.483 856.173L984.208 841.505L984.083 799.307C984.296 797.724 984.208 841.505 984.208 841.505L984.208 841.505C988.252 841.135 988.56 841.132 992.762 840.746C997.442 533.459 988.831 530.556 993.511 223.27C779.356 191.57 566.294 159.054 566.294 159.054ZM577.682 167.465C779.93 194.495 782.408 201.966 984.656 228.996C980.385 528.089 988.479 542.412 984.208 841.505L575.237 880.143L575.301 673.981C575.705 437.071 573.966 411.601 577.682 167.465Z" fill="url(#RadialGradient_6)" fill-rule="nonzero" filter="url(#Filter_7)" opacity="0.936475" stroke="#ffffff" stroke-linecap="round" stroke-linejoin="round" stroke-width="14.9951" vectornator:blendMode="luminosity" vectornator:blur="13.1556" vectornator:layerName="Curve 14"/>
<g opacity="1" vectornator:layerName="Curve 1">
<use fill="url(#LinearGradient)" fill-rule="nonzero" stroke="none" xlink:href="#Fill_3"/>
<mask height="720.512" id="StrokeMask_3" maskUnits="userSpaceOnUse" width="421.81" x="570.913" y="159.126">
<rect fill="#000000" height="720.512" stroke="none" width="421.81" x="570.913" y="159.126"/>
<use fill="#ffffff" fill-rule="evenodd" stroke="none" xlink:href="#Fill_3"/>
</mask>
<use fill="none" mask="url(#StrokeMask_3)" stroke="#885df7" stroke-linecap="round" stroke-linejoin="round" stroke-width="0" xlink:href="#Fill_3"/>
</g>
<g filter="url(#Filter_8)" opacity="0" vectornator:blendMode="luminosity" vectornator:blur="5.11137" vectornator:layerName="Curve 8">
<mask height="145.087" id="StrokeMask_4" maskUnits="userSpaceOnUse" width="626.253" x="482.064" y="745.746">
<rect fill="#000000" height="145.087" stroke="none" width="626.253" x="482.064" y="745.746"/>
<use fill="#ffffff" fill-rule="evenodd" stroke="none" xlink:href="#Fill_4"/>
</mask>
<use fill="none" mask="url(#StrokeMask_4)" stroke="#ffffff" stroke-linecap="round" stroke-linejoin="round" stroke-width="19.2269" xlink:href="#Fill_4"/>
</g>
<g filter="url(#Filter_9)" opacity="0" vectornator:blendMode="lighten" vectornator:blur="63.7901" vectornator:layerName="Curve 9">
<mask height="140.958" id="StrokeMask_5" maskUnits="userSpaceOnUse" width="622.336" x="482.064" y="749.875">
<rect fill="#000000" height="140.958" stroke="none" width="622.336" x="482.064" y="749.875"/>
<use fill="#ffffff" fill-rule="evenodd" stroke="none" xlink:href="#Fill_5"/>
</mask>
<use fill="none" mask="url(#StrokeMask_5)" stroke="#ffffff" stroke-linecap="round" stroke-linejoin="round" stroke-width="19.2269" xlink:href="#Fill_5"/>
</g>
<g filter="url(#Filter_10)" opacity="0" vectornator:blendMode="luminosity" vectornator:blur="1.30454" vectornator:layerName="Curve 5">
<mask height="353.604" id="StrokeMask_6" maskUnits="userSpaceOnUse" width="609.641" x="482.064" y="537.229">
<rect fill="#000000" height="353.604" stroke="none" width="609.641" x="482.064" y="537.229"/>
<use fill="#ffffff" fill-rule="evenodd" stroke="none" xlink:href="#Fill_6"/>
</mask>
<use fill="none" mask="url(#StrokeMask_6)" stroke="#ffffff" stroke-linecap="round" stroke-linejoin="round" stroke-width="19.2269" xlink:href="#Fill_6"/>
</g>
<path d="M980.605 845.93C984.408 834.522 961.103 845.033 867.627 853.999C774.151 862.966 606.701 881.796 606.701 881.796" fill="#ffffff" fill-rule="nonzero" filter="url(#Filter_11)" opacity="0" stroke="#ffffff" stroke-linecap="round" stroke-linejoin="round" stroke-width="26.5385" vectornator:blendMode="overlay" vectornator:blur="73.9754" vectornator:layerName="Curve 4"/>
<g filter="url(#Filter_12)" opacity="0.55279" vectornator:blendMode="luminosity" vectornator:blur="5.11137" vectornator:layerName="Curve 8">
<mask height="63.5427" id="StrokeMask_7" maskUnits="userSpaceOnUse" width="626.253" x="482.064" y="827.29">
<rect fill="#000000" height="63.5427" stroke="none" width="626.253" x="482.064" y="827.29"/>
<use fill="#ffffff" fill-rule="evenodd" stroke="none" xlink:href="#Fill_7"/>
</mask>
<use fill="none" mask="url(#StrokeMask_7)" stroke="#ffffff" stroke-linecap="round" stroke-linejoin="round" stroke-width="19.2269" xlink:href="#Fill_7"/>
</g>
<g filter="url(#Filter_13)" opacity="1" vectornator:blendMode="luminosity" vectornator:blur="39.7368" vectornator:layerName="Curve 9">
<mask height="330.214" id="StrokeMask_8" maskUnits="userSpaceOnUse" width="622.336" x="471.732" y="556.18">
<rect fill="#000000" height="330.214" stroke="none" width="622.336" x="471.732" y="556.18"/>
<use fill="#ffffff" fill-rule="evenodd" stroke="none" xlink:href="#Fill_8"/>
</mask>
<use fill="none" mask="url(#StrokeMask_8)" stroke="#ffffff" stroke-linecap="round" stroke-linejoin="round" stroke-width="226.376" xlink:href="#Fill_8"/>
</g>
<g filter="url(#Filter_14)" opacity="0.885246" vectornator:blendMode="luminosity" vectornator:blur="2.66393" vectornator:layerName="Curve 10">
<mask height="353.319" id="StrokeMask_9" maskUnits="userSpaceOnUse" width="609.641" x="482.064" y="537.514">
<rect fill="#000000" height="353.319" stroke="none" width="609.641" x="482.064" y="537.514"/>
<use fill="#ffffff" fill-rule="evenodd" stroke="none" xlink:href="#Fill_9"/>
</mask>
<use fill="none" mask="url(#StrokeMask_9)" stroke="#ffffff" stroke-linecap="round" stroke-linejoin="round" stroke-width="19.2269" xlink:href="#Fill_9"/>
</g>
<path d="M980.605 845.93C984.408 834.522 961.103 845.033 867.627 853.999C774.151 862.966 606.701 881.796 606.701 881.796" fill="#ffffff" fill-rule="nonzero" filter="url(#Filter_15)" opacity="0.505578" stroke="#ffffff" stroke-linecap="round" stroke-linejoin="round" stroke-width="26.5385" vectornator:blendMode="overlay" vectornator:blur="73.9754" vectornator:layerName="Curve 11"/>
<g filter="url(#Filter_16)" opacity="1" vectornator:blendMode="luminosity" vectornator:blur="18.483" vectornator:layerName="Curve 12">
<use fill="#ffffff" fill-rule="nonzero" stroke="none" xlink:href="#Fill_10"/>
<mask height="66.9452" id="StrokeMask_10" maskUnits="userSpaceOnUse" width="555.67" x="577.787" y="828.295">
<rect fill="#000000" height="66.9452" stroke="none" width="555.67" x="577.787" y="828.295"/>
<use fill="#ffffff" fill-rule="evenodd" stroke="none" xlink:href="#Fill_10"/>
</mask>
<use fill="none" mask="url(#StrokeMask_10)" stroke="#ffffff" stroke-linecap="round" stroke-linejoin="round" stroke-width="0" xlink:href="#Fill_10"/>
</g>
<g filter="url(#Filter_17)" opacity="0.119666" vectornator:blendMode="luminosity" vectornator:blur="77.452" vectornator:layerName="Curve 15">
<use fill="#ffffff" fill-rule="nonzero" stroke="none" xlink:href="#Fill_11"/>
<mask height="66.9452" id="StrokeMask_11" maskUnits="userSpaceOnUse" width="555.67" x="577.787" y="828.295">
<rect fill="#000000" height="66.9452" stroke="none" width="555.67" x="577.787" y="828.295"/>
<use fill="#ffffff" fill-rule="evenodd" stroke="none" xlink:href="#Fill_11"/>
</mask>
<use fill="none" mask="url(#StrokeMask_11)" stroke="#ffffff" stroke-linecap="round" stroke-linejoin="round" stroke-width="0" xlink:href="#Fill_11"/>
</g>
</g>
<g opacity="1" vectornator:layerName="Group 2">
<path d="M250.054 690.704C250.054 693.99 249.444 696.825 248.225 699.21C247.006 701.595 245.398 703.556 243.402 705.093C241.406 706.63 239.153 707.761 236.645 708.485C234.136 709.21 231.592 709.572 229.013 709.572L215.021 709.572L215.021 672.048L228.589 672.048C231.239 672.048 233.853 672.357 236.433 672.975C239.012 673.594 241.309 674.618 243.323 676.049C245.337 677.48 246.962 679.397 248.199 681.8C249.435 684.202 250.054 687.17 250.054 690.704ZM240.62 690.704C240.62 688.584 240.275 686.826 239.586 685.43C238.897 684.035 237.978 682.922 236.83 682.091C235.682 681.261 234.374 680.669 232.908 680.316C231.442 679.962 229.931 679.786 228.377 679.786L223.872 679.786L223.872 701.728L228.165 701.728C229.79 701.728 231.353 701.542 232.855 701.171C234.357 700.8 235.682 700.191 236.83 699.343C237.978 698.495 238.897 697.364 239.586 695.951C240.275 694.537 240.62 692.788 240.62 690.704Z" fill="#ffffff" fill-rule="nonzero" opacity="1" stroke="none" vectornator:layerName="Curve"/>
<path d="M306.043 709.572L306.043 672.048L315.159 672.048L315.159 709.572L306.043 709.572Z" fill="#ffffff" fill-rule="nonzero" opacity="1" stroke="none" vectornator:layerName="Curve"/>
<path d="M406.234 707.293C404.396 708.247 402.25 709.024 399.794 709.625C397.338 710.225 394.662 710.526 391.765 710.526C388.761 710.526 385.996 710.049 383.47 709.095C380.944 708.141 378.771 706.798 376.951 705.067C375.131 703.335 373.709 701.26 372.685 698.839C371.66 696.419 371.148 693.725 371.148 690.757C371.148 687.753 371.669 685.033 372.711 682.595C373.753 680.157 375.193 678.081 377.031 676.367C378.868 674.654 381.023 673.337 383.497 672.419C385.97 671.5 388.638 671.041 391.5 671.041C394.468 671.041 397.224 671.491 399.768 672.392C402.312 673.293 404.379 674.503 405.969 676.023L400.245 682.542C399.361 681.517 398.195 680.678 396.747 680.024C395.298 679.371 393.655 679.044 391.818 679.044C390.228 679.044 388.761 679.335 387.419 679.918C386.076 680.501 384.91 681.314 383.921 682.356C382.931 683.399 382.163 684.635 381.615 686.066C381.067 687.497 380.794 689.061 380.794 690.757C380.794 692.488 381.041 694.078 381.536 695.527C382.03 696.975 382.763 698.221 383.735 699.263C384.707 700.306 385.908 701.118 387.339 701.701C388.77 702.284 390.404 702.576 392.242 702.576C393.302 702.576 394.309 702.496 395.263 702.337C396.217 702.178 397.1 701.922 397.913 701.569L397.913 694.732L390.758 694.732L390.758 687.418L406.234 687.418L406.234 707.293Z" fill="#ffffff" fill-rule="nonzero" opacity="1" stroke="none" vectornator:layerName="Curve"/>
<path d="M463.654 709.572L463.654 672.048L472.77 672.048L472.77 709.572L463.654 709.572Z" fill="#ffffff" fill-rule="nonzero" opacity="1" stroke="none" vectornator:layerName="Curve"/>
<path d="M546.567 679.786L546.567 709.572L537.504 709.572L537.504 679.786L526.904 679.786L526.904 672.048L557.167 672.048L557.167 679.786L546.567 679.786Z" fill="#ffffff" fill-rule="nonzero" opacity="1" stroke="none" vectornator:layerName="Curve"/>
<path d="M633.561 709.572L630.646 702.205L616.124 702.205L613.368 709.572L603.51 709.572L619.251 672.048L628.049 672.048L643.631 709.572L633.561 709.572ZM623.491 682.065L618.721 694.944L628.155 694.944L623.491 682.065Z" fill="#ffffff" fill-rule="nonzero" opacity="1" stroke="none" vectornator:layerName="Curve"/>
<path d="M696.758 709.572L696.758 672.048L705.874 672.048L705.874 701.675L720.396 701.675L720.396 709.572L696.758 709.572Z" fill="#ffffff" fill-rule="nonzero" opacity="1" stroke="none" vectornator:layerName="Curve"/>
<path d="M856.436 681.8C855.658 680.81 854.642 680.024 853.388 679.441C852.134 678.858 850.924 678.567 849.758 678.567C849.157 678.567 848.547 678.62 847.929 678.726C847.311 678.832 846.754 679.035 846.26 679.335C845.765 679.636 845.35 680.024 845.014 680.501C844.678 680.978 844.511 681.588 844.511 682.33C844.511 682.966 844.643 683.496 844.908 683.92C845.173 684.344 845.562 684.715 846.074 685.033C846.586 685.351 847.196 685.642 847.903 685.907C848.609 686.172 849.404 686.446 850.288 686.729C851.56 687.153 852.885 687.621 854.263 688.133C855.641 688.646 856.895 689.326 858.026 690.174C859.156 691.022 860.093 692.073 860.835 693.327C861.577 694.582 861.948 696.145 861.948 698.018C861.948 700.173 861.55 702.037 860.755 703.609C859.96 705.182 858.891 706.48 857.549 707.505C856.206 708.529 854.669 709.289 852.938 709.784C851.206 710.278 849.422 710.526 847.585 710.526C844.899 710.526 842.302 710.058 839.794 709.121C837.285 708.185 835.2 706.851 833.54 705.12L839.476 699.078C840.394 700.208 841.604 701.154 843.106 701.913C844.608 702.673 846.101 703.053 847.585 703.053C848.256 703.053 848.91 702.982 849.546 702.841C850.182 702.699 850.738 702.47 851.215 702.152C851.692 701.834 852.072 701.41 852.355 700.88C852.637 700.35 852.779 699.714 852.779 698.972C852.779 698.265 852.602 697.664 852.249 697.17C851.895 696.675 851.392 696.225 850.738 695.818C850.084 695.412 849.272 695.041 848.3 694.705C847.328 694.37 846.224 694.007 844.988 693.619C843.786 693.23 842.611 692.771 841.463 692.241C840.315 691.711 839.29 691.031 838.389 690.2C837.488 689.37 836.764 688.363 836.216 687.179C835.668 685.996 835.395 684.556 835.395 682.86C835.395 680.775 835.819 678.991 836.667 677.507C837.515 676.023 838.628 674.804 840.006 673.85C841.384 672.896 842.938 672.198 844.67 671.756C846.401 671.315 848.15 671.094 849.917 671.094C852.037 671.094 854.201 671.482 856.409 672.26C858.617 673.037 860.552 674.185 862.213 675.705L856.436 681.8Z" fill="#ffffff" fill-rule="nonzero" opacity="1" stroke="none" vectornator:layerName="Curve"/>
<path d="M933.307 679.786L933.307 709.572L924.244 709.572L924.244 679.786L913.644 679.786L913.644 672.048L943.907 672.048L943.907 679.786L933.307 679.786Z" fill="#ffffff" fill-rule="nonzero" opacity="1" stroke="none" vectornator:layerName="Curve"/>
<path d="M1029.84 695.421C1029.84 697.682 1029.46 699.74 1028.7 701.595C1027.94 703.45 1026.85 705.04 1025.44 706.365C1024.03 707.69 1022.32 708.724 1020.33 709.466C1018.33 710.208 1016.11 710.579 1013.68 710.579C1011.2 710.579 1008.98 710.208 1007 709.466C1005.02 708.724 1003.34 707.69 1001.96 706.365C1000.58 705.04 999.525 703.45 998.783 701.595C998.041 699.74 997.67 697.682 997.67 695.421L997.67 672.048L1006.68 672.048L1006.68 694.679C1006.68 695.703 1006.81 696.675 1007.08 697.594C1007.34 698.512 1007.75 699.334 1008.3 700.058C1008.84 700.783 1009.57 701.357 1010.47 701.781C1011.37 702.205 1012.46 702.417 1013.73 702.417C1015 702.417 1016.09 702.205 1016.99 701.781C1017.89 701.357 1018.62 700.783 1019.19 700.058C1019.75 699.334 1020.16 698.512 1020.41 697.594C1020.65 696.675 1020.78 695.703 1020.78 694.679L1020.78 672.048L1029.84 672.048L1029.84 695.421Z" fill="#ffffff" fill-rule="nonzero" opacity="1" stroke="none" vectornator:layerName="Curve"/>
<path d="M1122.19 690.704C1122.19 693.99 1121.58 696.825 1120.36 699.21C1119.14 701.595 1117.53 703.556 1115.54 705.093C1113.54 706.63 1111.29 707.761 1108.78 708.485C1106.27 709.21 1103.73 709.572 1101.15 709.572L1087.15 709.572L1087.15 672.048L1100.72 672.048C1103.37 672.048 1105.99 672.357 1108.57 672.975C1111.15 673.594 1113.44 674.618 1115.46 676.049C1117.47 677.48 1119.1 679.397 1120.33 681.8C1121.57 684.202 1122.19 687.17 1122.19 690.704ZM1112.75 690.704C1112.75 688.584 1112.41 686.826 1111.72 685.43C1111.03 684.035 1110.11 682.922 1108.96 682.091C1107.82 681.261 1106.51 680.669 1105.04 680.316C1103.58 679.962 1102.07 679.786 1100.51 679.786L1096.01 679.786L1096.01 701.728L1100.3 701.728C1101.92 701.728 1103.49 701.542 1104.99 701.171C1106.49 700.8 1107.82 700.191 1108.96 699.343C1110.11 698.495 1111.03 697.364 1111.72 695.951C1112.41 694.537 1112.75 692.788 1112.75 690.704Z" fill="#ffffff" fill-rule="nonzero" opacity="1" stroke="none" vectornator:layerName="Curve"/>
<path d="M1178.18 709.572L1178.18 672.048L1187.29 672.048L1187.29 709.572L1178.18 709.572Z" fill="#ffffff" fill-rule="nonzero" opacity="1" stroke="none" vectornator:layerName="Curve"/>
<path d="M1284.14 690.651C1284.14 693.619 1283.63 696.331 1282.61 698.786C1281.58 701.242 1280.16 703.344 1278.34 705.093C1276.52 706.842 1274.36 708.194 1271.85 709.148C1269.34 710.102 1266.62 710.579 1263.69 710.579C1260.75 710.579 1258.04 710.102 1255.55 709.148C1253.06 708.194 1250.9 706.842 1249.09 705.093C1247.27 703.344 1245.84 701.242 1244.82 698.786C1243.79 696.331 1243.28 693.619 1243.28 690.651C1243.28 687.647 1243.79 684.936 1244.82 682.515C1245.84 680.095 1247.27 678.037 1249.09 676.341C1250.9 674.645 1253.06 673.337 1255.55 672.419C1258.04 671.5 1260.75 671.041 1263.69 671.041C1266.62 671.041 1269.34 671.5 1271.85 672.419C1274.36 673.337 1276.52 674.645 1278.34 676.341C1280.16 678.037 1281.58 680.095 1282.61 682.515C1283.63 684.936 1284.14 687.647 1284.14 690.651ZM1274.45 690.651C1274.45 689.025 1274.18 687.506 1273.65 686.093C1273.12 684.679 1272.39 683.469 1271.45 682.462C1270.51 681.455 1269.38 680.66 1268.06 680.077C1266.73 679.494 1265.28 679.203 1263.69 679.203C1262.1 679.203 1260.65 679.494 1259.34 680.077C1258.03 680.66 1256.9 681.455 1255.95 682.462C1254.99 683.469 1254.26 684.679 1253.75 686.093C1253.24 687.506 1252.98 689.025 1252.98 690.651C1252.98 692.347 1253.25 693.91 1253.78 695.341C1254.31 696.772 1255.04 698 1255.98 699.025C1256.91 700.049 1258.03 700.853 1259.34 701.436C1260.65 702.019 1262.1 702.311 1263.69 702.311C1265.28 702.311 1266.73 702.019 1268.03 701.436C1269.34 700.853 1270.47 700.049 1271.42 699.025C1272.38 698 1273.12 696.772 1273.65 695.341C1274.18 693.91 1274.45 692.347 1274.45 690.651Z" fill="#ffffff" fill-rule="nonzero" opacity="1" stroke="none" vectornator:layerName="Curve"/>
</g>
<g opacity="1" vectornator:layerName="Group 3">
<path d="M1257.68 421.743L1257.61 512.365L1257.55 602.988L1287.95 603.414C1287.95 603.414 1288.75 581.004 1288.48 553.655C1288.21 526.305 1287.94 495.697 1287.94 482.659C1287.94 481.644 1302.4 507.364 1316.86 533.338C1331.32 559.312 1345.78 585.54 1345.78 585.54L1358.09 585.304C1358.09 585.304 1369.14 561.625 1382.7 536.506C1396.26 511.388 1409.98 486.269 1410.61 486.269C1412.51 486.269 1412.91 515.975 1412.84 545.681C1412.77 575.388 1412.23 605.094 1412.23 605.094C1412.23 605.094 1442 604.63 1442.09 604.492C1442.93 603.073 1442.93 557.273 1442.72 511.828C1442.51 466.382 1442.09 421.291 1442.09 421.291L1427.29 421.893L1412.49 422.495C1412.49 422.495 1398.92 446.886 1384.63 472.77C1370.35 498.653 1355.35 526.028 1352.51 531.994C1352.47 532.061 1337.21 504.235 1321.95 476.392C1306.69 448.549 1291.44 420.69 1291.44 420.69L1274.56 421.216L1257.68 421.743Z" fill="#ffffff" fill-rule="nonzero" opacity="1" stroke="none" vectornator:layerName="Curve 9"/>
<path d="M1043.54 416.228C991.92 416.228 950.062 459.492 950.062 512.892C950.062 566.292 991.92 609.556 1043.54 609.556C1072.03 609.556 1097.52 596.357 1114.67 575.56C1128.58 558.685 1137.01 536.813 1137.01 512.892C1137.01 459.492 1095.15 416.228 1043.54 416.228ZM1044.56 449.168C1078.62 449.168 1106.27 477.188 1106.27 511.837C1106.27 536.718 1092.01 558.231 1071.36 568.368C1063.26 572.348 1054.16 574.554 1044.56 574.554C1010.51 574.554 982.907 546.486 982.907 511.837C982.907 477.188 1010.51 449.168 1044.56 449.168Z" fill="#ffffff" fill-rule="nonzero" opacity="1" stroke="none" vectornator:layerName="Curve 13"/>
<path d="M694.637 603.634C694.637 603.634 694.843 423.985 694.848 422.149C696.945 422.154 722.636 422.24 724.733 422.245C724.722 423.944 724.277 494.809 724.262 497.284C723.844 565.131 723.806 573.19 724.004 573.522C724.133 573.738 821.123 572.899 821.123 572.899C821.14 574.329 821.633 599.741 821.641 602.306C821.641 602.306 776.439 603.001 744.688 603.333C712.937 603.665 694.637 603.634 694.637 603.634Z" fill="#ffffff" fill-rule="nonzero" opacity="1" stroke="none" vectornator:layerName="Curve 4"/>
<path d="M481.702 420.879C481.653 420.878 481.622 420.965 481.574 420.975L449.758 421.742C449.501 421.748 449.27 421.914 449.158 422.173L370.777 602.843C370.556 603.354 370.87 603.949 371.378 603.946L406.323 603.754C406.586 603.753 406.81 603.587 406.923 603.323L466.652 464.224L525.652 604.473C525.767 604.748 526.024 604.911 526.295 604.905L563.684 603.994C564.182 603.982 564.499 603.394 564.285 602.891C564.247 602.802 555.316 582.001 552.107 574.553C542.942 553.275 533.727 531.985 525.009 512.125C524.412 510.766 523.796 509.387 523.208 508.049C512.08 482.743 502.756 461.9 495.766 446.915C491.803 438.419 488.611 431.936 486.333 427.591C485.124 425.286 484.172 423.584 483.46 422.509C483.074 421.926 482.746 421.514 482.474 421.262C482.225 421.032 481.961 420.884 481.702 420.879Z" fill="#ffffff" fill-rule="nonzero" opacity="1" stroke="none" vectornator:layerName="Curve 1"/>
<path d="M167.071 416.228C115.456 416.228 73.5978 459.492 73.5979 512.892C73.5979 566.292 115.456 609.556 167.071 609.556C195.565 609.556 221.059 596.357 238.206 575.56C241.378 571.713 244.171 567.522 246.738 563.19L217.967 548.518C211.992 556.896 204.142 563.83 194.899 568.368C186.793 572.348 177.699 574.554 168.1 574.554C134.05 574.554 106.442 546.486 106.442 511.837C106.442 477.188 134.05 449.168 168.1 449.168C187.346 449.168 204.332 458.288 215.652 472.327L243.051 456.648C226.089 432.178 198.4 416.228 167.071 416.228Z" fill="#ffffff" fill-rule="nonzero" opacity="1" stroke="none" vectornator:layerName="Curve 14"/>
</g>
</g>
</g>
</g>
</svg>
