<?xml version="1.0" encoding="UTF-8" standalone="no"?>
<!DOCTYPE svg PUBLIC "-//W3C//DTD SVG 1.1//EN" "http://www.w3.org/Graphics/SVG/1.1/DTD/svg11.dtd">
<!-- Created with Vectornator (http://vectornator.io/) -->
<svg height="2160.0px" stroke-miterlimit="10" style="fill-rule:nonzero;clip-rule:evenodd;stroke-linecap:round;stroke-linejoin:round;" version="1.1" viewBox="0 0 3840 2160" width="3840.0px" xml:space="preserve" xmlns="http://www.w3.org/2000/svg" xmlns:xlink="http://www.w3.org/1999/xlink">
<defs/>
<g id="Layer-1">
<g opacity="1">
<path d="M720.865 595.667C471.985 596.109 216.893 808.161 212.142 1081.03C208.707 1278.36 321.672 1442.77 488.945 1520.49C552.968 1550.23 617.783 1562.76 703.849 1564.26C789.915 1565.76 840.591 1544.71 912.862 1485.42C972.373 1436.6 1100.09 1316.78 1100.09 1316.78C1100.09 1316.78 1205.1 1226.33 1207.66 1079.26C1212.28 814.326 969.746 595.224 720.865 595.667ZM738.707 773.557C820.284 777.782 881.357 816.711 936.293 873.432C997.875 937.014 987.088 987.714 921.03 1016.23C867.7 1039.26 880.739 1030.86 762.893 1054.03C729.443 1060.61 641.725 1077.46 745.122 1147.12C848.52 1216.78 824.607 1198.87 879.144 1231.1C933.682 1263.32 842.65 1360.68 707.511 1367.47C641.86 1370.76 534.408 1332.32 467.415 1230.84C400.422 1129.36 402.509 1052.98 439.541 961.549C484.811 849.771 585.163 802.516 585.163 802.516C585.163 802.516 657.129 769.331 738.707 773.557Z" fill="#000000" fill-rule="nonzero" opacity="1" stroke="#000000" stroke-linecap="butt" stroke-linejoin="round" stroke-width="8.08665"/>
<text fill="#000000" font-family="Helvetica-Bold" font-size="760" opacity="1" stroke="none" text-anchor="start" transform="matrix(1 0 0 1 1232.01 705.237)" x="0" y="0">
<tspan textLength="2196.5" x="0" y="699.215"><![CDATA[calom]]></tspan>
</text>
</g>
</g>
</svg>
